<svg width="256" height="255" viewBox="0 0 256 255" fill="none" xmlns="http://www.w3.org/2000/svg">
<path d="M168 0.25L256 44.25V142.375L240 134.375V62.125L176 94.125V126.375L160 134.375V94.125L96 62.125V90.5L80 82.5V44.25L168 0.25ZM168 80.25L190.125 69.125L132.25 36L105.875 49.25L168 80.25ZM207.375 60.625L230.125 49.25L168 18.125L149.375 27.5L207.375 60.625ZM144 142.375L128 150.375V150.25L80 174.25V231.125L128 207V225L72 253L0 216.875V132.375L72 96.375L144 132.375V142.375ZM64 231.125V174.25L16 150.25V207L64 231.125ZM72 160.375L118.125 137.375L72 114.25L25.875 137.375L72 160.375ZM144 160.25L200 132.25L256 160.25V226.125L200 254.125L144 226.125V160.25ZM192 232.25V194.125L160 178.125V216.25L192 232.25ZM240 216.25V178.125L208 194.125V232.25L240 216.25ZM200 180.25L230.125 165.125L200 150.125L169.875 165.125L200 180.25Z" fill="#757575" fill-opacity="0.75"/>
</svg>
