<svg xmlns="http://www.w3.org/2000/svg" width="14" height="14" viewBox="0 0 14 14" fill="none">
  <g clip-path="url(#clip0_221_303)">
    <path
      d="M4.87701 0.460543C3.47819 0.945805 2.27185 1.86685 1.43519 3.08839C0.598521 4.30993 0.175626 5.76758 0.228619 7.24722C0.281612 8.72687 0.8077 10.1505 1.72961 11.3091C2.65152 12.4676 3.92066 13.3 5.3506 13.684C6.50989 13.9831 7.72449 13.9963 8.88998 13.7223C9.9458 13.4851 10.9219 12.9778 11.7228 12.2501C12.5563 11.4695 13.1613 10.4765 13.4728 9.37789C13.8112 8.18313 13.8715 6.92673 13.6489 5.70507H7.13888V8.40554H10.909C10.8337 8.83625 10.6722 9.24733 10.4343 9.61417C10.1964 9.98102 9.88689 10.2961 9.52435 10.5405C9.06403 10.8452 8.54504 11.0501 8.00076 11.1421C7.45492 11.2436 6.89504 11.2436 6.3492 11.1421C5.79593 11.0278 5.27255 10.7995 4.81248 10.4716C4.07327 9.94837 3.51822 9.20499 3.22654 8.34757C2.93001 7.47409 2.93001 6.52716 3.22654 5.65367C3.43416 5.0414 3.77739 4.48394 4.2306 4.02289C4.74925 3.48558 5.40587 3.10151 6.12843 2.91281C6.85099 2.72412 7.61156 2.73809 8.3267 2.9532C8.88538 3.12462 9.39627 3.42425 9.81857 3.8282C10.2437 3.40528 10.6681 2.98127 11.0917 2.55617C11.3104 2.32757 11.5489 2.10992 11.7644 1.87586C11.1196 1.27595 10.3629 0.809126 9.53748 0.502106C8.03434 -0.0436869 6.38964 -0.0583545 4.87701 0.460543Z"
      fill="white" />
    <path
      d="M4.87704 0.460586C6.38954 -0.058664 8.03424 -0.0443824 9.5375 0.501055C10.3631 0.810161 11.1195 1.27924 11.7633 1.88137C11.5445 2.11543 11.3138 2.33418 11.0906 2.56168C10.6663 2.98533 10.2422 3.40751 9.8186 3.82824C9.39629 3.4243 8.88541 3.12466 8.32672 2.95324C7.61182 2.73738 6.85127 2.7226 6.12853 2.91052C5.40578 3.09845 4.74875 3.48181 4.22954 4.01856C3.77632 4.47961 3.4331 5.03707 3.22547 5.64934L0.95813 3.89387C1.7697 2.28448 3.17489 1.05342 4.87704 0.460586Z"
      fill="#E33629" />
    <path
      d="M0.356569 5.63286C0.478347 5.02886 0.680675 4.44395 0.958132 3.8938L3.22548 5.65364C2.92895 6.52713 2.92895 7.47406 3.22548 8.34755C2.47006 8.93088 1.71428 9.51713 0.958132 10.1063C0.263765 8.72414 0.0519955 7.14935 0.356569 5.63286Z"
      fill="#F8BD00" />
    <path
      d="M7.13891 5.70386H13.6489C13.8715 6.92551 13.8112 8.18191 13.4728 9.37667C13.1614 10.4753 12.5563 11.4683 11.7228 12.2489C10.9911 11.6779 10.2561 11.1114 9.52438 10.5404C9.88715 10.2957 10.1968 9.9803 10.4347 9.61306C10.6727 9.24583 10.834 8.83433 10.9091 8.40323H7.13891C7.13782 7.50417 7.13891 6.60401 7.13891 5.70386Z"
      fill="#587DBD" />
    <path
      d="M0.957031 10.1062C1.71318 9.52283 2.46896 8.93658 3.22438 8.34741C3.51663 9.20513 4.07247 9.94855 4.8125 10.4715C5.27401 10.7978 5.79851 11.0243 6.3525 11.1365C6.89834 11.238 7.45822 11.238 8.00406 11.1365C8.54834 11.0445 9.06734 10.8396 9.52766 10.5349C10.2594 11.1058 10.9944 11.6724 11.7261 12.2434C10.9253 12.9715 9.94921 13.4792 8.89328 13.7166C7.72779 13.9906 6.5132 13.9775 5.35391 13.6783C4.43702 13.4335 3.58058 13.002 2.83828 12.4107C2.05267 11.7868 1.41098 11.0008 0.957031 10.1062Z"
      fill="#319F43" />
  </g>
  <defs>
    <clipPath id="clip0_221_303">
      <rect width="14" height="14" fill="white" />
    </clipPath>
  </defs>
</svg>