<svg width="258" height="240" viewBox="0 0 258 240" fill="none" xmlns="http://www.w3.org/2000/svg">
  <path fill-rule="evenodd" clip-rule="evenodd"
    d="M49.5604 28.2152V0H105.61V28.2152H92.5197V69.6194L64.3045 104.396V28.2152H49.5604Z"
    fill="white" />
  <path fill-rule="evenodd" clip-rule="evenodd"
    d="M91.6929 142.408L63.4777 177.559V211.785H49.4685V240H105.518V211.785H91.6929V142.408Z"
    fill="white" />
  <path fill-rule="evenodd" clip-rule="evenodd"
    d="M168.156 0V28.2152H174.062L132.784 119.637L121.903 106.489L103.445 128.412L172.424 211.785H168.156V240H224.206V211.785H209.042L152.813 143.84L205.02 28.2152H224.206V0H168.156Z"
    fill="white" />
  <path fill-rule="evenodd" clip-rule="evenodd"
    d="M257.362 48.4382H241.798H213.583H204.147V76.6535H213.583V149.507L178.11 107.736L165.886 135.551L210.177 189.081L210.431 188.871H255.715V160.656H241.798V76.6535H257.362V48.4382Z"
    fill="white" />
  <path fill-rule="evenodd" clip-rule="evenodd"
    d="M0 48.4382V76.6535H13.4514V159.344H0V187.172H42.5262V187.099L42.5608 187.127L124.977 87.5039L132.756 96.601L145.958 68.6285L137.06 57.828L137.053 57.8345H112.566V58.2418L41.6667 143.944V76.6535H53.2152V48.4382H0Z"
    fill="white" />
</svg>
  